<svg xmlns="http://www.w3.org/2000/svg" width="150" height="112" fill="none"><path fill="#F60" d="M11.613 95.089H4.45l11.025-21.206h7.913L33.925 95.09h-7.95l-1.612-3.808H13.3l-1.687 3.808ZM22.45 86.65l-3.412-7.728-3.6 7.728h7.012ZM35.55 73.883h6.863v21.205H35.55V73.883ZM45.9 73.883h6.862v4.33H45.9v-4.33Zm0 6.42h6.862v14.785H45.9V80.304ZM56.51 73.866h6.862v8.55c.825-.822 1.725-1.456 2.737-1.867a8.658 8.658 0 0 1 3.3-.635c2.325 0 4.2.747 5.625 2.24 1.425 1.493 2.138 3.472 2.138 5.899 0 2.24-.713 4.032-2.1 5.376-1.388 1.344-3.263 2.016-5.588 2.016-1.275 0-2.437-.224-3.487-.71-1.05-.448-1.913-1.157-2.663-2.053 0 .486 0 .933-.075 1.344-.037.41-.112.747-.187 1.046h-6.863c.075-.262.15-.635.188-1.046.037-.41.075-.896.075-1.418V73.865h.037Zm13.762 13.888c0-1.306-.3-2.315-.938-3.099-.6-.746-1.462-1.12-2.512-1.12-1.125 0-1.988.374-2.625 1.083-.6.71-.9 1.792-.9 3.174 0 1.306.3 2.314.9 3.023.6.71 1.462 1.083 2.55 1.083 1.087 0 1.912-.373 2.55-1.12.637-.747.975-1.755.975-3.024ZM92.846 92.712c-.637.858-1.5 1.493-2.55 1.904-1.05.41-2.287.634-3.787.634-2.1 0-3.75-.373-4.875-1.12-1.125-.746-1.688-1.792-1.688-3.173 0-1.867.975-3.21 2.925-4.032 1.95-.821 5.25-1.27 9.863-1.307V85.283c0-.747-.225-1.307-.675-1.68-.45-.374-1.125-.56-2.063-.56-.825 0-1.462.149-1.912.41-.45.261-.713.672-.788 1.232H80.96c.037-1.642.825-2.874 2.325-3.659 1.537-.783 3.862-1.194 7.012-1.194 3 0 5.25.448 6.75 1.419 1.463.933 2.213 2.351 2.213 4.255v7.542c0 .448.037.858.075 1.12.037.298.112.56.225.784h-6.375c-.113-.336-.225-.71-.263-1.083a11.257 11.257 0 0 1-.075-1.157Zm-.15-4.219c-2.212 0-3.75.15-4.537.448-.788.299-1.2.784-1.2 1.493 0 .486.187.86.6 1.158.375.261.937.41 1.65.41 1.162 0 2.025-.26 2.625-.82.6-.524.862-1.345.862-2.465v-.224ZM102.4 73.866h6.862v8.55c.825-.822 1.725-1.456 2.738-1.867a8.656 8.656 0 0 1 3.3-.635c2.325 0 4.2.747 5.625 2.24 1.425 1.493 2.137 3.472 2.137 5.899 0 2.24-.712 4.032-2.1 5.376-1.387 1.344-3.262 2.016-5.587 2.016-1.275 0-2.438-.224-3.488-.71-1.05-.448-1.912-1.157-2.662-2.053 0 .486-.038.933-.075 1.344-.038.41-.113.747-.188 1.046H102.1c.075-.262.15-.635.187-1.046.038-.41.075-.896.075-1.418V73.865h.038Zm13.762 13.888c0-1.306-.3-2.315-.937-3.099-.6-.746-1.463-1.12-2.513-1.12-1.125 0-1.987.374-2.587 1.083-.6.71-.9 1.792-.9 3.174 0 1.306.3 2.314.9 3.023.6.71 1.462 1.083 2.55 1.083 1.05 0 1.912-.373 2.55-1.12.637-.747.937-1.755.937-3.024ZM138.737 92.712c-.637.858-1.5 1.493-2.55 1.904-1.05.41-2.287.634-3.787.634-2.1 0-3.75-.373-4.875-1.12-1.125-.746-1.688-1.792-1.688-3.173 0-1.867.975-3.21 2.925-4.032 1.95-.821 5.25-1.27 9.863-1.307V85.283c0-.747-.225-1.307-.675-1.68-.45-.374-1.125-.56-2.063-.56-.825 0-1.462.149-1.912.41-.45.261-.713.672-.788 1.232h-6.337c.037-1.642.825-2.874 2.325-3.659 1.537-.783 3.862-1.194 7.012-1.194 3 0 5.25.448 6.75 1.419 1.463.933 2.213 2.351 2.213 4.255v7.542c0 .448.037.858.075 1.12.037.298.112.56.225.784h-6.375c-.113-.336-.225-.71-.263-1.083-.037-.373-.075-.747-.075-1.157Zm-.15-4.219c-2.212 0-3.712.15-4.537.448-.788.299-1.2.784-1.2 1.493 0 .486.187.86.6 1.158.375.261.937.41 1.65.41 1.162 0 2.025-.26 2.625-.82.6-.524.862-1.345.862-2.465v-.224Z"/><path fill="#000" d="M45.19 57.534c-.375-.037-.975-.373-1.387-.709-4.013-3.92 1.125-8.437 7.125-11.05v-7.467c1.387.896 2.175.933 2.212 1.045l4.575-4.517-1.537-3.883c13.387-4.592 18.75-6.347 29.625-8.176l-1.95-1.83 3.187-1.791c7.313 2.39 14.213 3.024 13.013 9.146.3-4.144-4.875-5.712-12.75-7.914l-1.538.933 2.925 2.39c-13.012 2.24-21.037 4.778-30.562 8.063l1.312 3.36-4.8 4.742c.788.224 9.15 2.986 17.813-3.024 0 0 .187-.112.187-.187-.262-.41-.862-.896-1.575-1.53 2.55.186 4.2 2.389 3.9 4.703h-1.2c.075-.746-.075-1.568-.337-2.09-6.713 4.89-14.513 5.6-21.15 3.285v5.787c-3.225 1.12-8.963 4.666-8.925 8.101.225 1.605 1.05 2.203 1.837 2.613Z"/><path fill="#F60" d="M72.645 55.622c-7.2 3.621-14.1 6.533-24.712 6.944-13.838-.299-15.976-9.446-9.45-19.003 6.187-9.632 16.012-18.368 31.612-23.819 4.537-1.605 11.175-3.397 17.588-3.509 9.224-.075 18.187 2.763 17.587 11.573-.337 6.758-10.125 16.24-15.263 23.072-2.212 2.987-2.587 4.928 1.2 4.742 13.688-.896 26.063-5.6 37.576-10.49-7.8 5.263-48.038 25.087-48.188 11.572.037-1.717.825-3.546 2.138-5.488 1.274-1.94 3.037-3.957 4.874-6.01 2.738-3.099 9.563-10.566 11.85-15.046 3.863-8.362-4.762-8.773-12.224-11.386l-3.188 1.792 1.95 1.83C75.12 24.186 69.757 25.978 56.37 30.57l1.538 3.883-4.538 4.48c-.112-.112-.787-.15-2.212-1.046v7.467c-5.963 2.613-11.138 7.13-7.126 11.05.413.337 1.013.673 1.388.71 7.35 4.107 27.263-1.493 27.225-1.493ZM115.672 60.473h.938c.187 0 .337-.038.45-.075.112-.037.187-.112.262-.187.075-.112.075-.186.075-.298a.46.46 0 0 0-.187-.374c-.113-.112-.3-.15-.525-.15h-1.013v1.084Zm-.412 1.866v-3.322h1.5c.3 0 .525.037.675.074.15.075.262.15.375.336a.75.75 0 0 1 .15.486.846.846 0 0 1-.225.597c-.15.15-.375.261-.713.299a.81.81 0 0 1 .263.149c.112.112.262.261.375.448l.6.896h-.563l-.45-.672a1.809 1.809 0 0 0-.337-.485.635.635 0 0 0-.225-.224c-.075-.038-.113-.075-.188-.075h-.825v1.493h-.412Z"/><path fill="#F60" d="M116.593 63.878a3.178 3.178 0 0 0 3.187-3.173 3.178 3.178 0 0 0-3.187-3.174 3.178 3.178 0 0 0-3.188 3.174 3.178 3.178 0 0 0 3.188 3.173Zm-2.7-3.173c0-1.494 1.2-2.688 2.7-2.688 1.5 0 2.7 1.194 2.7 2.688 0 1.456-1.2 2.688-2.7 2.688-1.5 0-2.7-1.195-2.7-2.688Z"/></svg>